<svg xmlns="http://www.w3.org/2000/svg" viewBox="0 0 800 800" width="800" height="800" role="img" aria-label="شاحنة نقل كبيرة">
  <defs>
    <linearGradient id="bg" x1="0" y1="0" x2="1" y2="1">
      <stop offset="0%" stop-color="#ffffff"/>
      <stop offset="100%" stop-color="#dbeafe"/>
    </linearGradient>
    <linearGradient id="body" x1="0" y1="0" x2="0" y2="1">
      <stop offset="0%" stop-color="#3b82f6"/>
      <stop offset="100%" stop-color="#1d4ed8"/>
    </linearGradient>
  </defs>
  <rect width="800" height="800" fill="url(#bg)"/>
  <circle cx="200" cy="180" r="150" fill="#3b82f6" opacity="0.14"/>
  <circle cx="660" cy="650" r="110" fill="#1d4ed8" opacity="0.10"/>
  <g transform="translate(400 410)">
    <g transform="translate(0 -20)">
      <rect x="-250" y="-120" width="270" height="180" rx="18" fill="url(#body)"/>
      <rect x="-230" y="-100" width="230" height="60" rx="10" fill="#ffffff" opacity="0.55"/>
      <path d="M40 -60 L150 -60 Q185 -60 200 -28 L240 40 L240 60 Q240 72 226 72 L40 72 Z" fill="#3b82f6"/>
      <rect x="70" y="-40" width="90" height="55" rx="8" fill="#ffffff" opacity="0.85"/>
      <circle cx="-160" cy="80" r="58" fill="#1f2937"/><circle cx="-160" cy="80" r="25" fill="#e5e7eb"/>
      <circle cx="140" cy="80" r="58" fill="#1f2937"/><circle cx="140" cy="80" r="25" fill="#e5e7eb"/>
      <rect x="-250" y="52" width="490" height="20" rx="8" fill="#1d4ed8"/>
    </g></g>
  <ellipse cx="400" cy="660" rx="230" ry="26" fill="#1d4ed8" opacity="0.10"/>
</svg>
